<svg width="86" height="28" viewBox="0 0 86 28" fill="none" xmlns="http://www.w3.org/2000/svg">
<g clip-path="url(#clip0_129_2483)">
<path d="M0 9.3333C0 4.1787 4.1787 0 9.3333 0H18.6667C23.8213 0 28 4.1787 28 9.3333V18.6667C28 23.8213 23.8213 28 18.6667 28H9.3333C4.1787 28 0 23.8213 0 18.6667V9.3333Z" fill="url(#paint0_linear_129_2483)"/>
<g opacity="0.6" filter="url(#filter0_f_129_2483)">
<path d="M16.2683 18.1723L12.5282 16.9401L9.36658 20.1612L16.2683 18.1723Z" fill="#161616"/>
</g>
<g opacity="0.6" filter="url(#filter1_f_129_2483)">
<path d="M20.3445 16.6482L18.4442 16.0605L16.2588 18.1886L20.3445 16.6482Z" fill="#161616"/>
</g>
<g filter="url(#filter2_d_129_2483)">
<path d="M20.3264 13.1305L22.4949 10.9621L13.1179 7.85596L5.61633 15.4161L9.36713 16.6469L12.5318 13.4235L16.2826 14.6543L18.451 12.5444L20.3264 13.1305Z" fill="#161616"/>
</g>
<g filter="url(#filter3_d_129_2483)">
<path fill-rule="evenodd" clip-rule="evenodd" d="M22.4949 10.9621L20.3264 13.1305L18.451 12.5444L16.2826 14.6543L12.5318 13.4235L9.36713 16.6469L5.61633 15.4161L13.1179 7.85596L22.4949 10.9621ZM20.3244 14.8878L18.449 14.3017L16.2805 16.4115L12.5298 15.1808L9.36503 18.4041L7.48963 17.7888L6.55203 17.4811L6.08313 17.3272L5.84873 17.2503V19.0085L6.08313 19.0854L6.55203 19.2393L7.48963 19.5469L9.36503 20.1623L12.5298 16.939L16.2805 18.1697L18.449 16.0599L20.3244 16.646L21.4086 15.5617L21.9507 15.0196L22.2217 14.7486L22.3573 14.6131V12.8549L22.2217 12.9904L21.9507 13.2615L21.4086 13.8036L20.3244 14.8878Z" fill="url(#paint1_linear_129_2483)"/>
<mask id="mask0_129_2483" style="mask-type:luminance" maskUnits="userSpaceOnUse" x="5" y="7" width="18" height="14">
<path fill-rule="evenodd" clip-rule="evenodd" d="M22.4949 10.9621L20.3264 13.1305L18.451 12.5444L16.2826 14.6543L12.5318 13.4235L9.36713 16.6469L5.61633 15.4161L13.1179 7.85596L22.4949 10.9621ZM20.3244 14.8878L18.449 14.3017L16.2805 16.4115L12.5298 15.1808L9.36503 18.4041L7.48963 17.7888L6.55203 17.4811L6.08313 17.3272L5.84873 17.2503V19.0085L6.08313 19.0854L6.55203 19.2393L7.48963 19.5469L9.36503 20.1623L12.5298 16.939L16.2805 18.1697L18.449 16.0599L20.3244 16.646L21.4086 15.5617L21.9507 15.0196L22.2217 14.7486L22.3573 14.6131V12.8549L22.2217 12.9904L21.9507 13.2615L21.4086 13.8036L20.3244 14.8878Z" fill="white"/>
</mask>
<g mask="url(#mask0_129_2483)">
<path d="M20.3264 13.1305L20.2966 13.2259L20.3544 13.244L20.3971 13.2012L20.3264 13.1305ZM22.4949 10.9621L22.5656 11.0328L22.6802 10.9181L22.5263 10.8671L22.4949 10.9621ZM18.451 12.5444L18.4809 12.449L18.424 12.4312L18.3813 12.4728L18.451 12.5444ZM16.2826 14.6543L16.2514 14.7493L16.309 14.7681L16.3524 14.7259L16.2826 14.6543ZM12.5318 13.4235L12.563 13.3285L12.504 13.3091L12.4605 13.3535L12.5318 13.4235ZM9.36707 16.6469L9.33587 16.7419L9.39498 16.7612L9.43847 16.7169L9.36707 16.6469ZM5.61628 15.4161L5.54527 15.3457L5.43127 15.4607L5.58517 15.5111L5.61628 15.4161ZM13.1179 7.85598L13.1493 7.76098L13.0905 7.74158L13.0469 7.78548L13.1179 7.85598ZM18.449 14.3017L18.4788 14.2063L18.4219 14.1885L18.3792 14.23L18.449 14.3017ZM20.3244 14.8878L20.2945 14.9832L20.3523 15.0013L20.3951 14.9585L20.3244 14.8878ZM16.2805 16.4115L16.2494 16.5065L16.3069 16.5254L16.3503 16.4832L16.2805 16.4115ZM12.5298 15.1808L12.5609 15.0858L12.5019 15.0664L12.4584 15.1107L12.5298 15.1808ZM9.36497 18.4041L9.33388 18.4991L9.39288 18.5185L9.43637 18.4742L9.36497 18.4041ZM5.84867 17.2503L5.87988 17.1553L5.74867 17.1123V17.2503H5.84867ZM5.84867 19.0085H5.74867V19.0809L5.81747 19.1035L5.84867 19.0085ZM9.36497 20.1623L9.33388 20.2573L9.39288 20.2767L9.43637 20.2324L9.36497 20.1623ZM12.5298 16.939L12.5609 16.844L12.5019 16.8246L12.4584 16.8689L12.5298 16.939ZM16.2805 18.1697L16.2494 18.2647L16.3069 18.2836L16.3503 18.2414L16.2805 18.1697ZM18.449 16.0599L18.4788 15.9644L18.4219 15.9467L18.3792 15.9882L18.449 16.0599ZM20.3244 16.646L20.2945 16.7414L20.3523 16.7594L20.3951 16.7167L20.3244 16.646ZM22.3573 14.6131L22.428 14.6838L22.4573 14.6545V14.6131H22.3573ZM22.3573 12.8549H22.4573V12.6135L22.2865 12.7842L22.3573 12.8549ZM20.3971 13.2012L22.5656 11.0328L22.4241 10.8914L20.2557 13.0598L20.3971 13.2012ZM18.4212 12.6399L20.2966 13.2259L20.3563 13.035L18.4809 12.449L18.4212 12.6399ZM16.3524 14.7259L18.5208 12.6161L18.3813 12.4728L16.2129 14.5826L16.3524 14.7259ZM12.5007 13.5185L16.2514 14.7493L16.3138 14.5592L12.563 13.3285L12.5007 13.5185ZM9.43847 16.7169L12.6032 13.4936L12.4605 13.3535L9.29577 16.5768L9.43847 16.7169ZM5.58517 15.5111L9.33587 16.7419L9.39828 16.5518L5.64747 15.3211L5.58517 15.5111ZM13.0469 7.78548L5.54527 15.3457L5.68727 15.4866L13.1889 7.92638L13.0469 7.78548ZM22.5263 10.8671L13.1493 7.76098L13.0865 7.95088L22.4634 11.057L22.5263 10.8671ZM18.4191 14.3972L20.2945 14.9832L20.3542 14.7923L18.4788 14.2063L18.4191 14.3972ZM16.3503 16.4832L18.5187 14.3734L18.3792 14.23L16.2108 16.3399L16.3503 16.4832ZM12.4986 15.2758L16.2494 16.5065L16.3117 16.3165L12.5609 15.0858L12.4986 15.2758ZM9.43637 18.4742L12.6011 15.2509L12.4584 15.1107L9.29367 18.3341L9.43637 18.4742ZM7.45848 17.8838L9.33388 18.4991L9.39618 18.3091L7.52077 17.6937L7.45848 17.8838ZM6.52077 17.5761L7.45848 17.8838L7.52077 17.6937L6.58307 17.3861L6.52077 17.5761ZM6.05188 17.4223L6.52077 17.5761L6.58307 17.3861L6.11427 17.2322L6.05188 17.4223ZM5.81747 17.3453L6.05188 17.4223L6.11427 17.2322L5.87988 17.1553L5.81747 17.3453ZM5.94868 19.0085V17.2503H5.74867V19.0085H5.94868ZM6.11427 18.9904L5.87988 18.9135L5.81747 19.1035L6.05188 19.1804L6.11427 18.9904ZM6.58307 19.1442L6.11427 18.9904L6.05188 19.1804L6.52077 19.3343L6.58307 19.1442ZM7.52077 19.4519L6.58307 19.1442L6.52077 19.3343L7.45848 19.642L7.52077 19.4519ZM9.39618 20.0673L7.52077 19.4519L7.45848 19.642L9.33388 20.2573L9.39618 20.0673ZM12.4584 16.8689L9.29367 20.0923L9.43637 20.2324L12.6011 17.009L12.4584 16.8689ZM16.3117 18.0747L12.5609 16.844L12.4986 17.034L16.2494 18.2647L16.3117 18.0747ZM18.3792 15.9882L16.2108 18.098L16.3503 18.2414L18.5187 16.1316L18.3792 15.9882ZM20.3542 16.5505L18.4788 15.9644L18.4191 16.1553L20.2945 16.7414L20.3542 16.5505ZM21.3379 15.491L20.2536 16.5752L20.3951 16.7167L21.4793 15.6325L21.3379 15.491ZM21.88 14.9489L21.3379 15.491L21.4793 15.6325L22.0214 15.0903L21.88 14.9489ZM22.151 14.6779L21.88 14.9489L22.0214 15.0903L22.2924 14.8193L22.151 14.6779ZM22.2865 14.5423L22.151 14.6779L22.2924 14.8193L22.428 14.6838L22.2865 14.5423ZM22.2573 12.8549V14.6131H22.4573V12.8549H22.2573ZM22.2924 13.0611L22.428 12.9256L22.2865 12.7842L22.151 12.9197L22.2924 13.0611ZM22.0214 13.3322L22.2924 13.0611L22.151 12.9197L21.88 13.1907L22.0214 13.3322ZM21.4793 13.8743L22.0214 13.3322L21.88 13.1907L21.3379 13.7328L21.4793 13.8743ZM20.3951 14.9585L21.4793 13.8743L21.3379 13.7328L20.2536 14.8171L20.3951 14.9585Z" fill="white" fill-opacity="0.81"/>
</g>
</g>
<g opacity="0.2" filter="url(#filter4_f_129_2483)">
<path d="M12.5382 16.9552V15.213L16.2715 16.4263V18.1686L12.5382 16.9552Z" fill="#161616"/>
</g>
<g opacity="0.2" filter="url(#filter5_f_129_2483)">
<path d="M5.84863 19.0104V17.2682L9.36833 18.4204V20.1627L5.84863 19.0104Z" fill="#161616"/>
</g>
<g opacity="0.2" filter="url(#filter6_f_129_2483)">
<path d="M18.4803 16.053V14.3108L20.347 14.9175V16.6597L18.4803 16.053Z" fill="#161616"/>
</g>
<path d="M43.7 15.48H38.28V20H36V8H44.28V10.16H38.28V13.34H43.7V15.48Z" fill="#161616"/>
<path d="M48.0317 8.13013V20H45.8717L45.8809 8.13013H48.0317Z" fill="#161616"/>
<path d="M56.0863 20V17.42H56.0663C55.6463 19.44 54.4463 20.26 52.8663 20.26C50.6063 20.26 49.7463 18.76 49.7463 16.74V10.6H51.9063V16.16C51.9063 17.3 52.4063 18.3 53.8663 18.3C55.2463 18.3 56.0863 17.5 56.0863 16.16V10.6H58.2463V20H56.0863Z" fill="#161616"/>
<path d="M64.3306 12.18C62.9106 12.18 62.0106 12.88 61.7706 14.4H66.6906C66.5706 12.94 65.8106 12.18 64.3306 12.18ZM64.3906 20.24C61.5106 20.24 59.5906 18.52 59.5906 15.42C59.5906 12.24 61.4706 10.36 64.3906 10.36C67.2506 10.36 68.6906 12.16 68.6906 14.74C68.6906 15.12 68.6906 15.5 68.6506 16H61.7506C61.9506 17.58 62.8706 18.36 64.4106 18.36C65.9106 18.36 66.4706 17.62 66.7506 16.66L68.6306 17.2C68.1506 19 66.8706 20.24 64.3906 20.24Z" fill="#161616"/>
<path d="M72.2201 14.44V20H70.0601V10.6H72.2201V13.18H72.2401C72.6601 11.18 73.8601 10.36 75.4401 10.36C77.7001 10.36 78.5601 11.84 78.5601 13.88V20H76.4001V14.44C76.4001 13.3 75.9001 12.3 74.4401 12.3C73.0601 12.3 72.2201 13.1 72.2201 14.44Z" fill="#161616"/>
<path d="M80.9242 17.14V12.42H79.6442V10.6H80.9242L81.0243 8H83.1643L83.0642 10.6H85.844V12.42H83.0642V16.78C83.0642 17.7 83.4242 18.16 84.3642 18.16C84.8442 18.16 85.284 18.04 85.704 17.94L85.964 19.92C85.284 20.14 84.7842 20.26 83.8642 20.26C81.8042 20.26 80.9242 18.9 80.9242 17.14Z" fill="#161616"/>
</g>
<defs>
<filter id="filter0_f_129_2483" x="8.96658" y="16.5401" width="7.70173" height="4.02107" filterUnits="userSpaceOnUse" color-interpolation-filters="sRGB">
<feFlood flood-opacity="0" result="BackgroundImageFix"/>
<feBlend mode="normal" in="SourceGraphic" in2="BackgroundImageFix" result="shape"/>
<feGaussianBlur stdDeviation="0.2" result="effect1_foregroundBlur_129_2483"/>
</filter>
<filter id="filter1_f_129_2483" x="15.8588" y="15.6605" width="4.88569" height="2.92805" filterUnits="userSpaceOnUse" color-interpolation-filters="sRGB">
<feFlood flood-opacity="0" result="BackgroundImageFix"/>
<feBlend mode="normal" in="SourceGraphic" in2="BackgroundImageFix" result="shape"/>
<feGaussianBlur stdDeviation="0.2" result="effect1_foregroundBlur_129_2483"/>
</filter>
<filter id="filter2_d_129_2483" x="-14.3837" y="-17.144" width="56.8785" height="48.7909" filterUnits="userSpaceOnUse" color-interpolation-filters="sRGB">
<feFlood flood-opacity="0" result="BackgroundImageFix"/>
<feColorMatrix in="SourceAlpha" type="matrix" values="0 0 0 0 0 0 0 0 0 0 0 0 0 0 0 0 0 0 127 0" result="hardAlpha"/>
<feOffset dy="-5"/>
<feGaussianBlur stdDeviation="10"/>
<feComposite in2="hardAlpha" operator="out"/>
<feColorMatrix type="matrix" values="0 0 0 0 0 0 0 0 0 0 0 0 0 0 0 0 0 0 0.3 0"/>
<feBlend mode="normal" in2="BackgroundImageFix" result="effect1_dropShadow_129_2483"/>
<feBlend mode="normal" in="SourceGraphic" in2="effect1_dropShadow_129_2483" result="shape"/>
</filter>
<filter id="filter3_d_129_2483" x="5.11633" y="7.15596" width="17.8785" height="13.3063" filterUnits="userSpaceOnUse" color-interpolation-filters="sRGB">
<feFlood flood-opacity="0" result="BackgroundImageFix"/>
<feColorMatrix in="SourceAlpha" type="matrix" values="0 0 0 0 0 0 0 0 0 0 0 0 0 0 0 0 0 0 127 0" result="hardAlpha"/>
<feOffset dy="-0.2"/>
<feGaussianBlur stdDeviation="0.25"/>
<feComposite in2="hardAlpha" operator="out"/>
<feColorMatrix type="matrix" values="0 0 0 0 1 0 0 0 0 1 0 0 0 0 1 0 0 0 0.2 0"/>
<feBlend mode="normal" in2="BackgroundImageFix" result="effect1_dropShadow_129_2483"/>
<feBlend mode="normal" in="SourceGraphic" in2="effect1_dropShadow_129_2483" result="shape"/>
</filter>
<filter id="filter4_f_129_2483" x="12.4382" y="15.113" width="3.93328" height="3.15557" filterUnits="userSpaceOnUse" color-interpolation-filters="sRGB">
<feFlood flood-opacity="0" result="BackgroundImageFix"/>
<feBlend mode="normal" in="SourceGraphic" in2="BackgroundImageFix" result="shape"/>
<feGaussianBlur stdDeviation="0.05" result="effect1_foregroundBlur_129_2483"/>
</filter>
<filter id="filter5_f_129_2483" x="5.74863" y="17.1682" width="3.71965" height="3.09453" filterUnits="userSpaceOnUse" color-interpolation-filters="sRGB">
<feFlood flood-opacity="0" result="BackgroundImageFix"/>
<feBlend mode="normal" in="SourceGraphic" in2="BackgroundImageFix" result="shape"/>
<feGaussianBlur stdDeviation="0.05" result="effect1_foregroundBlur_129_2483"/>
</filter>
<filter id="filter6_f_129_2483" x="18.3803" y="14.2108" width="2.0667" height="2.54888" filterUnits="userSpaceOnUse" color-interpolation-filters="sRGB">
<feFlood flood-opacity="0" result="BackgroundImageFix"/>
<feBlend mode="normal" in="SourceGraphic" in2="BackgroundImageFix" result="shape"/>
<feGaussianBlur stdDeviation="0.05" result="effect1_foregroundBlur_129_2483"/>
</filter>
<linearGradient id="paint0_linear_129_2483" x1="2.5511" y1="27.0978" x2="26.8489" y2="2.2089" gradientUnits="userSpaceOnUse">
<stop stop-color="#161616"/>
<stop offset="1" stop-color="#303030"/>
</linearGradient>
<linearGradient id="paint1_linear_129_2483" x1="23.8373" y1="8.49126" x2="8.91653" y2="23.2029" gradientUnits="userSpaceOnUse">
<stop stop-color="white"/>
<stop offset="1" stop-color="#DADADA"/>
</linearGradient>
<clipPath id="clip0_129_2483">
<rect width="86" height="28" fill="white"/>
</clipPath>
</defs>
</svg>
