<svg
  width="451"
  height="450"
  viewBox="0 0 451 450"
  fill="none"
  xmlns="http://www.w3.org/2000/svg"
>
  <path
    d="M0.5 150C0.5 67.1573 67.6573 0 150.5 0H300.5C383.343 0 450.5 67.1573 450.5 150V300C450.5 382.843 383.343 450 300.5 450H150.5C67.6573 450 0.5 382.843 0.5 300V150Z"
    fill="#171717"
  />
  <path
    fill-rule="evenodd"
    clip-rule="evenodd"
    d="M362.002 176.168L327.153 211.017L297.012 201.599L262.163 235.506L201.882 215.727L151.021 267.53L90.7402 247.751L211.301 126.248L362.002 176.168ZM327.122 239.271L296.982 229.852L262.132 263.76L201.852 243.981L150.99 295.784L120.85 285.894L105.78 280.949L98.2445 278.477L94.477 277.241V305.497L98.2445 306.733L105.78 309.206L120.85 314.151L150.99 324.041L201.852 272.237L262.132 292.017L296.982 258.109L327.122 267.528L344.547 250.103L353.259 241.39L357.615 237.034L359.793 234.856V206.6L357.615 208.778L353.259 213.134L344.547 221.846L327.122 239.271Z"
    fill="white"
  />
</svg>